<?xml version="1.0" encoding="UTF-8"?>
<svg version="1.1" xmlns="http://www.w3.org/2000/svg" width="600" height="500">
<path d="M0 0 C6.48963377 0.48723006 10.18524846 4.98208172 14.74609375 9.28125 C15.37821777 9.87631348 16.0103418 10.47137695 16.66162109 11.08447266 C25.24801874 19.25443517 33.00615779 27.50694453 39.74609375 37.28125 C40.36742187 38.13074219 40.98875 38.98023438 41.62890625 39.85546875 C57.60356574 61.88113562 68.96330711 90.8543634 69.1171875 118.23828125 C69.12621597 119.26193283 69.13524445 120.28558441 69.14454651 121.34025574 C69.15897473 123.49918738 69.16791712 125.65816201 69.17163086 127.81713867 C69.18342492 131.04750755 69.23259999 134.27589798 69.28320312 137.50585938 C69.39147556 151.43677977 67.70530923 163.93142427 63.74609375 177.28125 C63.50206314 178.11264999 63.25803253 178.94404999 63.00660706 179.80064392 C59.76174257 190.74760434 55.38686071 200.3755129 49.74609375 210.28125 C49.276875 211.209375 48.80765625 212.1375 48.32421875 213.09375 C33.42619158 242.53926253 5.67372955 266.32456281 -23.25390625 281.28125 C-23.87765137 281.60488525 -24.50139648 281.92852051 -25.14404297 282.26196289 C-41.21683512 290.45565856 -57.52602907 296.03406458 -75.25390625 299.28125 C-76.08116211 299.44351074 -76.90841797 299.60577148 -77.76074219 299.77294922 C-100.46475077 304.15022425 -124.62437488 303.92508031 -147.25390625 299.28125 C-148.12772949 299.11496094 -149.00155273 298.94867188 -149.90185547 298.77734375 C-167.06186757 295.4919665 -188.70058473 290.99961073 -200.81640625 277.40625 C-203.8782548 270.7500575 -201.9847372 264.17496488 -200.015625 257.46484375 C-199.77948486 256.62882126 -199.54334473 255.79279877 -199.30004883 254.93144226 C-198.52355883 252.19100511 -197.73250888 249.45500094 -196.94140625 246.71875 C-196.38871896 244.77811964 -195.83705852 242.83719656 -195.28637695 240.89599609 C-194.15834593 236.92476684 -193.02487738 232.95515471 -191.88671875 228.98681641 C-190.42142148 223.87422636 -188.97321303 218.75703048 -187.53515625 213.63671875 C-187.32021515 212.87164001 -187.10527405 212.10656128 -186.88381958 211.31829834 C-186.45200665 209.78123519 -186.02021336 208.24416653 -185.58843994 206.70709229 C-183.48558587 199.22937416 -181.36816655 191.75574909 -179.25390625 184.28125 C-178.94376587 183.18480164 -178.63362549 182.08835327 -178.31408691 180.9586792 C-173.62973502 164.39886377 -168.94269429 147.83980987 -164.25390625 131.28125 C-163.26390625 131.61125 -162.27390625 131.94125 -161.25390625 132.28125 C-161.05345703 133.36390137 -160.85300781 134.44655273 -160.64648438 135.56201172 C-158.76743885 145.70575134 -156.88066439 155.84802472 -154.98641968 165.98893738 C-153.83877839 172.13556818 -152.69857068 178.28351781 -151.56390381 184.43255615 C-150.847135 188.30779799 -150.12375025 192.18178434 -149.39868164 196.05548096 C-149.05232136 197.91348667 -148.70873085 199.77201086 -148.36791992 201.63104248 C-147.89182769 204.22548882 -147.40608384 206.81794913 -146.91796875 209.41015625 C-146.7786795 210.18211838 -146.63939026 210.95408051 -146.49588013 211.74943542 C-145.75850396 215.94326392 -145.75850396 215.94326392 -143.25390625 219.28125 C-139.76894442 219.15266551 -137.89242376 218.90225473 -135.35791016 216.43725586 C-134.82085449 215.63167236 -134.28379883 214.82608887 -133.73046875 213.99609375 C-133.11042969 213.08537109 -132.49039063 212.17464844 -131.8515625 211.23632812 C-131.20058594 210.24052734 -130.54960937 209.24472656 -129.87890625 208.21875 C-129.18410156 207.18814453 -128.48929687 206.15753906 -127.7734375 205.09570312 C-125.58191275 201.83605686 -123.41641912 198.56019801 -121.25390625 195.28125 C-119.90873884 193.26092809 -118.5624154 191.24137531 -117.21484375 189.22265625 C-115.228436 186.24475578 -113.24368736 183.26584263 -111.26513672 180.28271484 C-104.68838338 170.37815971 -97.91191279 160.61791175 -91.08203125 150.88671875 C-89.38549571 148.4687931 -87.69411338 146.0473513 -86.00390625 143.625 C-79.28639171 134.02394289 -72.33850819 124.61433376 -65.25390625 115.28125 C-63.93794956 119.61421071 -64.86993821 123.134334 -65.87890625 127.4453125 C-66.06126328 128.25813187 -66.2436203 129.07095123 -66.4315033 129.90840149 C-66.82573186 131.66187796 -67.22394469 133.41446241 -67.6257019 135.16622925 C-68.68767237 139.79819518 -69.72069386 144.43663752 -70.7578125 149.07421875 C-71.07426476 150.48354424 -71.07426476 150.48354424 -71.39710999 151.92134094 C-73.43009176 160.99993337 -75.33200886 170.10323652 -77.19140625 179.21875 C-77.33425049 179.91695862 -77.47709473 180.61516724 -77.62426758 181.33453369 C-78.28088018 184.54471383 -78.93357231 187.75558797 -79.57910156 190.96801758 C-79.99502812 193.01018086 -80.42391025 195.04981535 -80.87402344 197.0847168 C-83.85935317 210.79940671 -84.19274925 225.5113917 -76.74609375 237.76171875 C-72.1044277 244.37879151 -66.19868527 248.5813739 -58.25390625 250.28125 C-41.46420459 251.64726209 -26.9165582 249.82457502 -13.25390625 239.28125 C-3.20746147 230.59972505 2.78184022 220.94581216 6.74609375 208.28125 C6.74609375 207.29125 6.74609375 206.30125 6.74609375 205.28125 C5.67294922 206.15136719 5.67294922 206.15136719 4.578125 207.0390625 C-6.31812665 215.58127272 -18.61014096 222.92311015 -32.88671875 222.59765625 C-36.50899052 222.11349121 -38.57172235 220.70175742 -41.25390625 218.28125 C-46.32391247 211.32633895 -45.00268051 202.48466485 -43.83422852 194.36480713 C-42.44128471 186.06542716 -40.710697 177.83301119 -39.00390625 169.59375 C-38.45719739 166.90499926 -37.91555605 164.21523717 -37.37426758 161.52539062 C-36.38892259 156.6357357 -35.39874801 151.74711067 -34.40206242 146.85975456 C-31.77510085 133.9748979 -29.2364713 121.07290517 -26.70452881 108.1690979 C-25.94397295 104.29432645 -25.18141503 100.4199534 -24.41845703 96.5456543 C-21.6892031 82.67502483 -18.99485595 68.79869872 -16.37890625 54.90625 C-16.24265839 54.18412323 -16.10641052 53.46199646 -15.96603394 52.71798706 C-14.7797984 46.43069663 -13.59686062 40.14284078 -12.43457031 33.85107422 C-11.76017157 30.20041767 -11.07753776 26.5513852 -10.3895874 22.90325928 C-10.01768882 20.91734794 -9.65538666 18.92964686 -9.29345703 16.94189453 C-8.95677002 15.16274658 -8.95677002 15.16274658 -8.61328125 13.34765625 C-8.32662598 11.7999353 -8.32662598 11.7999353 -8.03417969 10.22094727 C-5.44621708 0.47074145 -5.44621708 0.47074145 0 0 Z " fill="#D5353E" transform="translate(412.25390625,109.71875)"/>
<path d="M0 0 C1.57856781 0.00738693 1.57856781 0.00738693 3.18902588 0.0149231 C19.05513963 0.11589393 33.99369078 0.84381021 49.25 5.5625 C50.32282227 5.88428223 51.39564453 6.20606445 52.50097656 6.53759766 C63.72903353 9.97347947 74.69341035 13.88531613 85.125 19.3125 C85.80240234 19.66473633 86.47980469 20.01697266 87.17773438 20.37988281 C91.08261509 22.54768079 93.97628548 24.68170977 96.25 28.5625 C96.30171042 33.16472782 93.58562036 36.19497857 90.8125 39.625 C90.14250977 40.47481445 90.14250977 40.47481445 89.45898438 41.34179688 C85.6447231 46.15108283 81.69389294 50.84647148 77.7421875 55.54296875 C74.78177179 59.12980471 71.95065488 62.80553867 69.1340332 66.50488281 C65.96436714 70.65921026 62.71627646 74.74391411 59.4375 78.8125 C54.61320634 84.80876218 49.90839527 90.88740607 45.24902344 97.01245117 C41.26564376 102.2461103 37.23605632 107.44164636 33.1875 112.625 C26.76743131 120.85870721 20.46947726 129.17644909 14.25 137.5625 C13.39873535 138.70984619 13.39873535 138.70984619 12.53027344 139.88037109 C10.72627811 142.31443469 8.92505318 144.75051986 7.125 147.1875 C6.5374292 147.98188477 5.9498584 148.77626953 5.34448242 149.59472656 C2.59603322 153.32385932 -0.11968007 157.06804143 -2.75390625 160.87890625 C-3.21071777 161.53616699 -3.6675293 162.19342773 -4.13818359 162.87060547 C-4.98212971 164.09133023 -5.81762576 165.31795622 -6.64306641 166.55126953 C-7.76171875 168.16796875 -7.76171875 168.16796875 -9.75 170.5625 C-10.74 170.5625 -11.73 170.5625 -12.75 170.5625 C-17.43822528 152.96029942 -22.084641 135.34875106 -26.60284424 117.7020874 C-30.5462504 102.30308413 -34.56170329 86.92312649 -38.58911133 71.54589844 C-41.37460009 60.90046731 -44.11149122 50.24535925 -46.75 39.5625 C-48.87675044 42.75262567 -49.97540587 45.86090416 -51.1484375 49.46484375 C-51.37887756 50.16036346 -51.60931763 50.85588318 -51.84674072 51.57247925 C-52.61034872 53.88029277 -53.36762711 56.1901335 -54.125 58.5 C-54.66669111 60.14102232 -55.20885422 61.78188891 -55.75146484 63.42260742 C-56.87446282 66.81925256 -57.99543516 70.21655689 -59.11523438 73.61425781 C-60.59123441 78.08790965 -62.0809727 82.55682561 -63.578125 87.0234375 C-69.38531186 104.35465612 -75.11867511 121.70995862 -80.81561279 139.07772827 C-81.58961446 141.43672818 -82.36436281 143.79548327 -83.13995361 146.15396118 C-88.22522698 161.62344007 -93.1270553 177.13953677 -97.87921143 192.71447754 C-103.37076041 210.6752723 -109.03117054 228.58805022 -114.91928101 246.42282104 C-115.38173426 247.82493933 -115.84227487 249.22769022 -116.3006897 250.63113403 C-124.27915918 275.01606501 -124.27915918 275.01606501 -130.75 280.5625 C-135.14745159 280.79807776 -137.03090508 280.17886708 -140.375 277.3125 C-141.15875 276.405 -141.9425 275.4975 -142.75 274.5625 C-143.52730469 273.80710937 -144.30460937 273.05171875 -145.10546875 272.2734375 C-155.02576474 262.10403511 -161.59803716 249.22668814 -167.75 236.5625 C-168.26941162 235.5094165 -168.26941162 235.5094165 -168.79931641 234.43505859 C-171.78152519 228.10702714 -173.59677648 221.56345479 -175.375 214.8125 C-175.6740625 213.72195313 -175.973125 212.63140625 -176.28125 211.5078125 C-179.9965811 197.59998015 -181.16140903 184.32018261 -181.125 170 C-181.12412384 169.15767822 -181.12324768 168.31535645 -181.12234497 167.44750977 C-181.07867407 154.71918051 -180.37337506 142.83080344 -176.75 130.5625 C-176.50862305 129.68287598 -176.26724609 128.80325195 -176.01855469 127.89697266 C-172.60562925 115.52243482 -168.10946928 104.43471354 -161.7265625 93.31054688 C-160.40714397 90.9487877 -159.2678582 88.51363008 -158.125 86.0625 C-155.6323813 81.02621922 -152.31131266 76.88217152 -148.75 72.5625 C-148.14285156 71.78261719 -147.53570312 71.00273437 -146.91015625 70.19921875 C-134.38500217 54.13935861 -120.14255347 40.2599086 -102.75 29.5625 C-101.945625 29.05589844 -101.14125 28.54929687 -100.3125 28.02734375 C-88.57322073 20.78683433 -76.89548225 14.7990233 -63.75 10.5625 C-62.2951427 10.06505856 -60.84073717 9.56629442 -59.38671875 9.06640625 C-39.71074606 2.4269434 -20.73788412 -0.18430479 0 0 Z " fill="#D5343D" transform="translate(300.75,71.4375)"/>
<path d="M0 0 C0.33 0 0.66 0 1 0 C1.02721176 1.89575251 1.04649136 3.79161979 1.0625 5.6875 C1.07410156 6.74324219 1.08570313 7.79898438 1.09765625 8.88671875 C1.00865425 11.72410262 0.64939838 14.2438919 0 17 C-0.66 17 -1.32 17 -2 17 C-2.33 17.99 -2.66 18.98 -3 20 C-2.45136137 13.2142064 -1.45732062 6.64990964 0 0 Z " fill="#EB8B8F" transform="translate(397,158)"/>
<path d="M0 0 C0.33 0 0.66 0 1 0 C1.99928065 4.99640327 2.12039317 8.31281509 0 13 C-0.99 13.495 -0.99 13.495 -2 14 C-1.03644647 4.58997722 -1.03644647 4.58997722 0 0 Z " fill="#E7767B" transform="translate(387,210)"/>
</svg>
